<svg xmlns="http://www.w3.org/2000/svg" xmlns:xlink="http://www.w3.org/1999/xlink" version="1.1" class="marks" width="658" height="347" viewBox="0 0 658 347"><rect width="658" height="347" fill="white"/><g fill="none" stroke-miterlimit="10" transform="translate(53,10)"><g class="mark-group role-frame root" role="graphics-object" aria-roledescription="group mark container"><g transform="translate(0,0)"><path class="background" aria-hidden="true" d="M0.5,0.5h600v300h-600Z" stroke="#ddd"/><g><g class="mark-group role-axis" aria-hidden="true"><g transform="translate(0.5,300.5)"><path class="background" aria-hidden="true" d="M0,0h0v0h0Z" pointer-events="none"/><g><g class="mark-rule role-axis-grid" pointer-events="none"><line transform="translate(50,-300)" x2="0" y2="300" stroke="#ddd" stroke-width="1" opacity="1"/><line transform="translate(98,-300)" x2="0" y2="300" stroke="#ddd" stroke-width="1" opacity="1"/><line transform="translate(149,-300)" x2="0" y2="300" stroke="#ddd" stroke-width="1" opacity="1"/><line transform="translate(198,-300)" x2="0" y2="300" stroke="#ddd" stroke-width="1" opacity="1"/><line transform="translate(249,-300)" x2="0" y2="300" stroke="#ddd" stroke-width="1" opacity="1"/><line transform="translate(299,-300)" x2="0" y2="300" stroke="#ddd" stroke-width="1" opacity="1"/><line transform="translate(350,-300)" x2="0" y2="300" stroke="#ddd" stroke-width="1" opacity="1"/><line transform="translate(401,-300)" x2="0" y2="300" stroke="#ddd" stroke-width="1" opacity="1"/><line transform="translate(450,-300)" x2="0" y2="300" stroke="#ddd" stroke-width="1" opacity="1"/><line transform="translate(501,-300)" x2="0" y2="300" stroke="#ddd" stroke-width="1" opacity="1"/><line transform="translate(551,-300)" x2="0" y2="300" stroke="#ddd" stroke-width="1" opacity="1"/></g></g><path class="foreground" aria-hidden="true" d="" pointer-events="none" display="none"/></g></g><g class="mark-group role-axis" aria-hidden="true"><g transform="translate(0.5,0.5)"><path class="background" aria-hidden="true" d="M0,0h0v0h0Z" pointer-events="none"/><g><g class="mark-rule role-axis-grid" pointer-events="none"><line transform="translate(0,300)" x2="600" y2="0" stroke="#ddd" stroke-width="1" opacity="1"/><line transform="translate(0,263)" x2="600" y2="0" stroke="#ddd" stroke-width="1" opacity="1"/><line transform="translate(0,225)" x2="600" y2="0" stroke="#ddd" stroke-width="1" opacity="1"/><line transform="translate(0,188)" x2="600" y2="0" stroke="#ddd" stroke-width="1" opacity="1"/><line transform="translate(0,150)" x2="600" y2="0" stroke="#ddd" stroke-width="1" opacity="1"/><line transform="translate(0,113)" x2="600" y2="0" stroke="#ddd" stroke-width="1" opacity="1"/><line transform="translate(0,75)" x2="600" y2="0" stroke="#ddd" stroke-width="1" opacity="1"/><line transform="translate(0,38)" x2="600" y2="0" stroke="#ddd" stroke-width="1" opacity="1"/><line transform="translate(0,0)" x2="600" y2="0" stroke="#ddd" stroke-width="1" opacity="1"/></g></g><path class="foreground" aria-hidden="true" d="" pointer-events="none" display="none"/></g></g><g class="mark-group role-axis" role="graphics-symbol" aria-roledescription="axis" aria-label="X-axis titled 'date' for a time scale with values from Tuesday, 01 January 2008, 7:00:00 PM to Tuesday, 30 December 2008, 7:00:00 PM"><g transform="translate(0.5,300.5)"><path class="background" aria-hidden="true" d="M0,0h0v0h0Z" pointer-events="none"/><g><g class="mark-rule role-axis-tick" pointer-events="none"><line transform="translate(50,0)" x2="0" y2="5" stroke="#888" stroke-width="1" opacity="1"/><line transform="translate(98,0)" x2="0" y2="5" stroke="#888" stroke-width="1" opacity="1"/><line transform="translate(149,0)" x2="0" y2="5" stroke="#888" stroke-width="1" opacity="1"/><line transform="translate(198,0)" x2="0" y2="5" stroke="#888" stroke-width="1" opacity="1"/><line transform="translate(249,0)" x2="0" y2="5" stroke="#888" stroke-width="1" opacity="1"/><line transform="translate(299,0)" x2="0" y2="5" stroke="#888" stroke-width="1" opacity="1"/><line transform="translate(350,0)" x2="0" y2="5" stroke="#888" stroke-width="1" opacity="1"/><line transform="translate(401,0)" x2="0" y2="5" stroke="#888" stroke-width="1" opacity="1"/><line transform="translate(450,0)" x2="0" y2="5" stroke="#888" stroke-width="1" opacity="1"/><line transform="translate(501,0)" x2="0" y2="5" stroke="#888" stroke-width="1" opacity="1"/><line transform="translate(551,0)" x2="0" y2="5" stroke="#888" stroke-width="1" opacity="1"/></g><g class="mark-text role-axis-label" pointer-events="none"><text text-anchor="middle" transform="translate(49.793956043956044,15)" font-family="sans-serif" font-size="10px" fill="#000" opacity="1">February</text><text text-anchor="middle" transform="translate(97.59615384615385,15)" font-family="sans-serif" font-size="10px" fill="#000" opacity="1">March</text><text text-anchor="middle" transform="translate(148.62637362637363,15)" font-family="sans-serif" font-size="10px" fill="#000" opacity="1">April</text><text text-anchor="middle" transform="translate(198.07692307692307,15)" font-family="sans-serif" font-size="10px" fill="#000" opacity="1">May</text><text text-anchor="middle" transform="translate(249.1758241758242,15)" font-family="sans-serif" font-size="10px" fill="#000" opacity="1">June</text><text text-anchor="middle" transform="translate(298.6263736263736,15)" font-family="sans-serif" font-size="10px" fill="#000" opacity="1">July</text><text text-anchor="middle" transform="translate(349.72527472527474,15)" font-family="sans-serif" font-size="10px" fill="#000" opacity="1">August</text><text text-anchor="middle" transform="translate(400.8241758241758,15)" font-family="sans-serif" font-size="10px" fill="#000" opacity="1">September</text><text text-anchor="middle" transform="translate(450.27472527472526,15)" font-family="sans-serif" font-size="10px" fill="#000" opacity="1">October</text><text text-anchor="middle" transform="translate(501.3736263736264,15)" font-family="sans-serif" font-size="10px" fill="#000" opacity="1">November</text><text text-anchor="middle" transform="translate(550.8928571428571,15)" font-family="sans-serif" font-size="10px" fill="#000" opacity="1">December</text></g><g class="mark-rule role-axis-domain" pointer-events="none"><line transform="translate(0,0)" x2="600" y2="0" stroke="#888" stroke-width="1" opacity="1"/></g><g class="mark-text role-axis-title" pointer-events="none"><text text-anchor="middle" transform="translate(300,30)" font-family="sans-serif" font-size="11px" font-weight="bold" fill="#000" opacity="1">date</text></g></g><path class="foreground" aria-hidden="true" d="" pointer-events="none" display="none"/></g></g><g class="mark-group role-axis" role="graphics-symbol" aria-roledescription="axis" aria-label="Y-axis titled 'low, high, close' for a linear scale with values from 0 to 1,600"><g transform="translate(0.5,0.5)"><path class="background" aria-hidden="true" d="M0,0h0v0h0Z" pointer-events="none"/><g><g class="mark-rule role-axis-tick" pointer-events="none"><line transform="translate(0,300)" x2="-5" y2="0" stroke="#888" stroke-width="1" opacity="1"/><line transform="translate(0,263)" x2="-5" y2="0" stroke="#888" stroke-width="1" opacity="1"/><line transform="translate(0,225)" x2="-5" y2="0" stroke="#888" stroke-width="1" opacity="1"/><line transform="translate(0,188)" x2="-5" y2="0" stroke="#888" stroke-width="1" opacity="1"/><line transform="translate(0,150)" x2="-5" y2="0" stroke="#888" stroke-width="1" opacity="1"/><line transform="translate(0,113)" x2="-5" y2="0" stroke="#888" stroke-width="1" opacity="1"/><line transform="translate(0,75)" x2="-5" y2="0" stroke="#888" stroke-width="1" opacity="1"/><line transform="translate(0,38)" x2="-5" y2="0" stroke="#888" stroke-width="1" opacity="1"/><line transform="translate(0,0)" x2="-5" y2="0" stroke="#888" stroke-width="1" opacity="1"/></g><g class="mark-text role-axis-label" pointer-events="none"><text text-anchor="end" transform="translate(-7,303)" font-family="sans-serif" font-size="10px" fill="#000" opacity="1">0</text><text text-anchor="end" transform="translate(-7,265.5)" font-family="sans-serif" font-size="10px" fill="#000" opacity="1">200</text><text text-anchor="end" transform="translate(-7,228)" font-family="sans-serif" font-size="10px" fill="#000" opacity="1">400</text><text text-anchor="end" transform="translate(-7,190.5)" font-family="sans-serif" font-size="10px" fill="#000" opacity="1">600</text><text text-anchor="end" transform="translate(-7,153)" font-family="sans-serif" font-size="10px" fill="#000" opacity="1">800</text><text text-anchor="end" transform="translate(-7,115.5)" font-family="sans-serif" font-size="10px" fill="#000" opacity="1">1,000</text><text text-anchor="end" transform="translate(-7,78)" font-family="sans-serif" font-size="10px" fill="#000" opacity="1">1,200</text><text text-anchor="end" transform="translate(-7,40.5)" font-family="sans-serif" font-size="10px" fill="#000" opacity="1">1,400</text><text text-anchor="end" transform="translate(-7,3)" font-family="sans-serif" font-size="10px" fill="#000" opacity="1">1,600</text></g><g class="mark-rule role-axis-domain" pointer-events="none"><line transform="translate(0,300)" x2="0" y2="-300" stroke="#888" stroke-width="1" opacity="1"/></g><g class="mark-text role-axis-title" pointer-events="none"><text text-anchor="middle" transform="translate(-36.0244140625,150) rotate(-90) translate(0,-2)" font-family="sans-serif" font-size="11px" font-weight="bold" fill="#000" opacity="1">low, high, close</text></g></g><path class="foreground" aria-hidden="true" d="" pointer-events="none" display="none"/></g></g><g class="mark-area role-mark layer_0_marks" clip-path="url(#clip1)" role="graphics-object" aria-roledescription="area mark container"><path aria-label="date: Jan 01, 2008; low: 1442.069946; high: 1471.77002" role="graphics-symbol" aria-roledescription="area mark" d="M0,29.611885124999972L1.6483516483516485,29.30062875L3.296703296703297,35.401886062499976L8.241758241758241,36.853134187500004L9.89010989010989,39.693740812500025L11.538461538461538,41.493759187499975L13.186813186813188,38.37936393750003L14.835164835164834,38.469383249999986L19.78021978021978,36.954368625000015L21.428571428571427,41.13750450000002L23.076923076923077,44.19937125L24.725274725274726,50.49936674999999L26.373626373626376,53.90437312500001L32.967032967032964,61.07061768750002L34.61538461538462,61.86561581250001L36.26373626373626,49.816863937500024L37.91208791208791,51.09374999999999L42.857142857142854,52.07624812500001L44.505494505494504,46.8393860625L46.15384615384615,46.32188418749998L47.802197802197796,49.860008249999986L49.45054945054945,42.013114875L54.395604395604394,41.30813606249997L56.043956043956044,49.379997187500024L57.69230769230769,51.686256375000006L59.340659340659336,53.10937499999999L60.989010989010985,52.30123893750003L65.93406593406593,52.44001012499999L67.58241758241758,48.870002812499976L69.23076923076924,46.72874456249999L70.87912087912088,47.37936393750001L72.52747252747253,49.100624062499996L79.12087912087912,47.80311581250001L80.76923076923076,49.396865812500025L82.41758241758242,48.873756375L84.06593406593407,51.17999268750002L89.01098901098901,47.61936956250001L90.65934065934066,44.383117687500004L92.3076923076923,42.749999999999986L93.95604395604396,44.407493624999994L95.60439560439559,51.48374175L100.54945054945054,52.49249268749999L102.1978021978022,54.864372187499995L103.84615384615384,52.458755437499995L105.4945054945055,55.608741750000014L107.14285714285714,59.544364875000014L112.08791208791209,61.376243625000015L113.73626373626374,61.0499955L115.38461538461539,54.776252812500005L117.03296703296704,59.604377812499976L118.68131868131867,60.963752812500005L123.62637362637362,64.31625375L125.27472527472528,60.532493625000015L126.92307692307692,56.54624174999999L128.57142857142856,57.146255437499995L135.16483516483515,50.57061768750001L136.8131868131868,48.523132312499996L138.46153846153848,49.423118624999994L140.1098901098901,51.438743624999994L141.75824175824175,53.82188418749999L146.7032967032967,53.84811393750002L148.35164835164835,51.29811862499999L150,44.709365812500025L151.64835164835165,45.24748987500003L153.2967032967033,44.46938324999999L158.24175824175825,43.308746250000006L159.8901098901099,44.88375093749999L161.53846153846152,46.8806304375L163.18681318681317,46.85437781249998L164.83516483516485,50.39813231249999L169.78021978021977,51.344993625000015L171.42857142857142,51.68437950000002L173.07692307692307,49.30874625000001L174.72527472527474,45.51562500000001L176.3736263736264,43.31250000000001L181.3186813186813,41.39062499999999L182.967032967033,43.155006375000006L184.6153846153846,42.70500187499998L186.26373626373626,42.920631374999985L187.9120879120879,41.25375374999999L192.85714285714286,38.54999549999998L194.5054945054945,39.993759187499975L196.15384615384616,40.453125000000014L197.8021978021978,40.674385125L199.45054945054943,36.328125L204.3956043956044,36.68062593749999L206.04395604395606,38.043754500000006L207.69230769230768,39.15749362500001L209.34065934065933,39.489372187499995L210.989010989011,40.47937781249998L215.93406593406593,40.08750918749999L217.58241758241758,38.201248125000006L219.23076923076923,36.4406205L220.8791208791209,36.21187593749998L222.52747252747253,34.80937950000001L227.47252747252747,33.44437406250002L229.1208791208791,35.795631375000006L230.76923076923077,39.598113937500024L232.41758241758242,39.33187874999997L234.06593406593407,42.42750543749999L240.65934065934067,42.54938512499999L242.30769230769232,41.59499362499999L243.95604395604394,39.639381375000006L245.6043956043956,37.86000824999998L250.54945054945057,41.66436768750002L252.1978021978022,43.10250093750001L253.84615384615384,42.798751874999994L255.4945054945055,41.722503749999994L257.1428571428571,45.01874549999999L262.0879120879121,46.75875093749998L263.7362637362637,46.58248893750003L265.38461538461536,49.599380437499995L267.032967032967,50.38311768750001L268.6813186813187,48.42938231249998L273.6263736263736,46.48688512499998L275.27472527472526,46.7737426875L276.92307692307696,49.9874955L278.57142857142856,50.53125000000001L280.2197802197802,53.538757312499996L285.16483516483515,53.37936393750001L286.8131868131868,55.421241750000014L288.46153846153845,53.52374268750002L290.1098901098901,59.409370499999994L291.75824175824175,61.499999999999986L296.7032967032967,60.963752812500005L298.35164835164835,63.622489875L300,63.46687312500001L301.64835164835165,65.24812312499999L308.2417582417582,67.37248987500001L309.8901098901099,66.967506375L311.53846153846155,66.643135125L313.1868131868132,68.10749812500002L314.83516483516485,70.24687949999999L319.7802197802198,70.31062312500002L321.42857142857144,74.91751106249997L323.07692307692304,72.86437218750001L324.7252747252747,67.220626875L326.37362637362634,65.2856139375L331.31868131868134,64.55625918749999L332.967032967033,65.84438325L334.61538461538464,60.73873893750002L336.2637362637363,65.34750374999999L337.9120879120879,65.296875L342.85714285714283,68.55562593750001L344.5054945054945,68.1787490625L346.15384615384613,62.902496250000006L347.80219780219784,62.6306304375L349.4505494505495,64.77374268750002L354.3956043956044,66.10313418749998L356.04395604395603,64.74936675L357.6923076923077,60.75000000000001L359.34065934065933,62.94561768750001L360.989010989011,63.3543778125L365.934065934066,57.860618625000015L367.58241758241763,58.942497187500024L369.2307692307692,60.963752812500005L370.8791208791209,60.592506375L372.5274725274725,57.98625187500001L377.4725274725275,61.029373125L379.1208791208791,63.1668778125L380.7692307692308,63.53249362499999L382.41758241758237,62.77125543750001L384.065934065934,60.45188137499999L389.010989010989,62.83687593749998L390.65934065934067,63.14813231249998L392.3076923076923,61.86936956250001L393.95604395604397,59.289367687500004L395.6043956043956,59.48625187500001L402.19780219780216,61.462509187500004L403.84615384615387,62.70188137500001L405.4945054945055,68.84438325L407.14285714285717,71.76937874999997L412.0879120879121,66.16500093749998L413.7362637362637,70.40437312499999L415.38461538461536,70.95000450000002L417.032967032967,72.8362426875L418.68131868131866,68.6606139375L423.62637362637366,76.3687591875L425.2747252747253,80.75999456249998L426.92307692307696,83.27249906249999L428.57142857142856,87.46874999999999L430.2197802197802,72.5418778125L435.16483516483515,73.94812781249999L436.8131868131868,77.42623893750003L438.46153846153845,78.78936768749999L440.1098901098901,77.27437593750001L441.7582417582418,77.33624268750002L446.7032967032967,92.54624175L448.35164835164835,91.16624456250001L450,86.10562125000001L451.64835164835165,91.60686487500003L453.2967032967033,94.09874718750002L458.2417582417582,111.0056304375L459.8901098901099,113.20687875L461.53846153846155,117.94313043749999L463.1868131868132,129.52687462499998L464.83516483516485,142.53750225L469.7802197802198,128.859375L471.42857142857144,117.73687368750001L473.07692307692304,130.501876875L474.7252747252747,137.6568718125L476.37362637362634,127.73625187499998L481.31868131868134,123.091873125L482.967032967033,121.4118804375L484.61538461538464,135.78562537500002L486.2637362637363,139.042499625L487.9120879120879,140.0906295L492.85714285714283,141.234375L494.5054945054945,141.51187124999998L496.15384615384613,127.076248125L497.80219780219784,125.90625L499.4505494505495,122.88936993750002L504.3956043956044,120.22124868749998L506.04395604395603,117.87937537500002L507.6923076923077,121.9012528125L509.34065934065933,131.30062875L510.989010989011,129.95624549999997L515.934065934066,129.84938043750003L517.5824175824176,134.0812455L519.2307692307693,140.53500375000002L520.8791208791209,146.49562462499998L522.5274725274726,136.8974990625L527.4725274725274,140.81625375L529.1208791208791,144.96749493750002L530.7692307692307,148.84125131250002L532.4175824175824,159.79124456249997L534.065934065934,161.05874624999998L539.0109890109891,149.77499775L540.6593406593406,143.439376875L542.3076923076923,142.2431259375L545.6043956043956,134.77312087500002L550.5494505494505,147.058124625L552.1978021978022,146.63624962499998L553.8461538461539,144.8250045L555.4945054945056,143.7000045L557.1428571428571,146.5481300625L562.0879120879121,134.491870875L563.7362637362637,133.9912490625L565.3846153846154,133.97812274999998L567.032967032967,137.11312875000002L568.6813186813187,140.3718795L573.6263736263736,139.1775054375L575.2747252747253,136.5881195625L576.9230769230769,132.011249625L578.5714285714286,135.479999625L580.2197802197802,134.43374624999998L585.1648351648352,139.29561993750002L586.8131868131868,138.73125449999998L588.4615384615385,138.479999625L591.7582417582418,137.52749624999998L596.7032967032967,139.29937368749998L598.3516483516484,136.76624681250001L600,133.1868781875L600,129.3149986875L598.3516483516484,132.9150009375L596.7032967032967,136.18124775L591.7582417582418,136.173751875L588.4615384615385,136.91437912499998L586.8131868131868,134.91749962499998L585.1648351648352,133.6181259375L580.2197802197802,130.2243804375L578.5714285714286,129.18374624999998L576.9230769230769,127.71562950000002L575.2747252747253,128.5012550625L573.6263736263736,134.1318740625L568.6813186813187,134.392501875L567.032967032967,130.3818740625L565.3846153846154,129.69937125L563.7362637362637,128.20124812500003L562.0879120879121,127.76812368749998L557.1428571428571,135.10875318749999L555.4945054945056,135.8250045L553.8461538461539,136.2900009375L552.1978021978022,140.523754125L550.5494505494505,133.3856278125L545.6043956043956,131.953125L542.3076923076923,133.56000131250002L540.6593406593406,137.07374962499998L539.0109890109891,137.7000045L534.065934065934,149.77499775L532.4175824175824,146.15249624999998L530.7692307692307,137.8931236875L529.1208791208791,137.6437455L527.4725274725274,134.57062912499998L522.5274725274726,128.0849990625L520.8791208791209,128.810623125L519.2307692307693,132.4893721875L517.5824175824176,128.0343705L515.934065934066,121.50937275L510.989010989011,125.35124587500002L509.34065934065933,121.42499550000001L507.6923076923077,112.15499493750002L506.04395604395603,111.09187312499999L504.3956043956044,117.08062368750001L499.4505494505495,115.42874906249999L497.80219780219784,119.39437875L496.15384615384613,118.13063043750002L494.5054945054945,123.65437312499999L492.85714285714283,132.4162445625L487.9120879120879,131.94375225L486.2637362637363,126.96937181249999L484.61538461538464,121.5618781875L482.967032967033,115.229999625L481.31868131868134,115.23749550000001L476.37362637362634,115.37999718750001L474.7252747252747,122.30437087499999L473.07692307692304,113.5125045L471.42857142857144,104.19186393750003L469.7802197802198,111.2006263125L464.83516483516485,124.4325028125L463.1868131868132,111.515625L461.53846153846155,108.55125037500001L459.8901098901099,98.82936862499999L458.2417582417582,94.20748893750002L453.2967032967033,83.65876012499997L451.64835164835165,82.37999718750002L450,81.1818695625L448.35164835164835,80.9943695625L446.7032967032967,73.29938512499997L441.7582417582418,72.04312125000001L440.1098901098901,71.24436956250001L438.46153846153845,75.485618625L436.8131868131868,71.03437050000001L435.16483516483515,64.6181259375L430.2197802197802,62.79000093749999L428.57142857142856,72.91124718750001L426.92307692307696,73.06125637499999L425.2747252747253,72.21750637499999L423.62637362637366,65.45249175000002L418.68131868131866,64.67063137499999L417.032967032967,65.62875375L415.38461538461536,66.7687455L413.7362637362637,62.126243625L412.0879120879121,61.04624174999999L407.14285714285717,66.57376106249997L405.4945054945055,61.5374908125L403.84615384615387,59.88750450000002L402.19780219780216,55.67999268749999L395.6043956043956,56.701881375000006L393.95604395604397,56.12248987500003L392.3076923076923,59.0531158125L390.65934065934067,60.81562049999998L389.010989010989,58.03688043750002L384.065934065934,57.545631375000006L382.41758241758237,59.737495499999994L380.7692307692308,60.74812312500002L379.1208791208791,60.62812049999998L377.4725274725275,56.20875543750002L372.5274725274725,55.8656158125L370.8791208791209,56.22937781249998L369.2307692307692,57.369369562500005L367.58241758241763,55.35186768749999L365.934065934066,53.78437049999998L360.989010989011,56.6531295L359.34065934065933,58.77937312500001L357.6923076923077,57.81186675000001L356.04395604395603,59.08499906250001L354.3956043956044,63.65812687500001L349.4505494505495,61.77749625L347.80219780219784,59.07561487500001L346.15384615384613,59.18813325L344.5054945054945,63.150009187500004L342.85714285714283,63.733131375000006L337.9120879120879,63.144378749999994L336.2637362637363,59.39625543750001L334.61538461538464,57.90561675000002L332.967032967033,60.48374175000001L331.31868131868134,62.29875187499998L326.37362637362634,63.331878749999994L324.7252747252747,63.3168639375L323.07692307692304,66.46499625L321.42857142857144,68.55937949999999L319.7802197802198,64.96875L314.83516483516485,64.26187125L313.1868131868132,64.19062050000001L311.53846153846155,60.4950028125L309.8901098901099,61.09311675000002L308.2417582417582,61.134384187500004L301.64835164835165,61.59750374999997L300,57.71811674999999L298.35164835164835,59.004363937500024L296.7032967032967,58.06686393750001L291.75824175824175,58.22813418749998L290.1098901098901,53.19561768750002L288.46153846153845,49.5693740625L286.8131868131868,51.37124625L285.16483516483515,51.79124456249998L280.2197802197802,48.55874625000003L278.57142857142856,47.313743625000015L276.92307692307696,46.95188137500001L275.27472527472526,43.764381374999985L273.6263736263736,44.11875918749999L268.6813186813187,44.994369562500005L267.032967032967,46.30686956250001L265.38461538461536,45.54563137499999L263.7362637362637,43.71750637499999L262.0879120879121,43.00687406250001L257.1428571428571,37.48873893750001L255.4945054945055,36.74061581250001L253.84615384615384,39.71623987500003L252.1978021978022,38.790000937500004L250.54945054945057,37.57125093750001L245.6043956043956,36.66375731249999L243.95604395604394,36.315010125L242.30769230769232,39.14062500000001L240.65934065934067,39.86249549999998L234.06593406593407,38.96250918749998L232.41758241758242,37.674385125L230.76923076923077,33.915000937500004L229.1208791208791,32.908126875L227.47252747252747,29.955001874999986L222.52747252747253,32.658760125L220.8791208791209,32.9249955L219.23076923076923,33.714386062499976L217.58241758241758,36.318740812499996L215.93406593406593,36.738738937500024L210.989010989011,38.456245499999994L209.34065934065933,37.0593795L207.69230769230768,33.836242687500004L206.04395604395606,33.45563512499997L204.3956043956044,34.623756375000006L199.45054945054943,33.24000543749999L197.8021978021978,35.61188512499997L196.15384615384616,36.64313512499997L194.5054945054945,38.062499999999986L192.85714285714286,36.956245499999994L187.9120879120879,37.666877812499976L186.26373626373626,37.92750543749999L184.6153846153846,39.774375937500004L182.967032967033,40.04436487500003L181.3186813186813,39.33187874999997L176.3736263736264,38.2687455L174.72527472527474,43.387504500000006L173.07692307692307,43.970626874999994L171.42857142857142,49.17750543750002L169.78021978021977,49.567497187500024L164.83516483516485,45.37875375L163.18681318681317,43.642501874999994L161.53846153846152,43.42687218750001L159.8901098901099,43.09499362499999L158.24175824175825,39.98625187499999L153.2967032967033,41.07936862499999L151.64835164835165,42.063743624999994L150,41.63438418749998L148.35164835164835,43.09123987500002L146.7032967032967,50.90249625000003L141.75824175824175,49.7118759375L140.1098901098901,47.6962509375L138.46153846153848,46.4156341875L136.8131868131868,45.47438043750002L135.16483516483515,45.05998987500003L128.57142857142856,50.49936674999999L126.92307692307692,48.466873125L125.27472527472528,50.486251875L123.62637362637362,58.59375L118.68131868131867,52.22438043750001L117.03296703296704,52.18498987500001L115.38461538461539,50.01374812499999L113.73626373626374,52.378120499999994L112.08791208791209,57.18562312499999L107.14285714285714,53.76750187499998L105.4945054945055,50.212509187499975L103.84615384615384,47.964386062499976L102.1978021978022,50.43186956249998L100.54945054945054,49.66312406250002L95.60439560439559,44.23688512499999L93.95604395604396,41.59499362499999L92.3076923076923,39.68625637499999L90.65934065934066,39.87375637499999L89.01098901098901,42.30750281249998L84.06593406593407,46.06874081250002L82.41758241758242,43.5112610625L80.76923076923076,44.3043823125L79.12087912087912,43.634994562500005L72.52747252747253,46.875L70.87912087912088,43.469993625000015L69.23076923076924,43.26937874999999L67.58241758241758,44.6062545L65.93406593406593,48.4874955L60.989010989010985,48.52125543750001L59.340659340659336,47.407493624999994L57.69230769230769,46.507507312499996L56.043956043956044,41.19749456249999L54.395604395604394,38.3662490625L49.45054945054945,38.24624625000001L47.802197802197796,40.19625093749999L46.15384615384615,40.15125281249998L44.505494505494504,44.07561487500003L42.857142857142854,46.13063043749999L37.91208791208791,43.3949889375L36.26373626373626,45.90937049999998L34.61538461538462,48.92063137499999L32.967032967032964,52.108131374999985L26.373626373626376,46.822494562500005L24.725274725274726,41.67750543750001L23.076923076923077,39.00187687499999L21.428571428571427,35.27249906250002L19.78021978021978,34.145622187500024L14.835164835164834,33.766868625000015L13.186813186813188,32.045631374999985L11.538461538461538,35.77688606249997L9.89010989010989,31.82249456249999L8.241758241758241,33.02437593749998L3.296703296703297,29.248123124999992L1.6483516483516485,26.849990812500014L0,24.04312125000001Z" fill="red" opacity="0.2"/></g><g class="mark-line role-mark layer_1_marks" clip-path="url(#clip2)" role="graphics-object" aria-roledescription="line mark container" pointer-events="none"><path aria-label="date: Jan 01, 2008; close: 1447.160034" role="graphics-symbol" aria-roledescription="line mark" d="M0,28.657493624999997L1.6483516483516485,28.657493624999997L3.296703296703297,35.31937406250001L8.241758241758241,34.46623987500001L9.89010989010989,39.33938606249999L11.538461538461538,35.78812406250002L13.186813186813188,33.68813325000001L14.835164835164834,37.30874625L19.78021978021978,34.45312500000001L21.428571428571427,41.0718841875L23.076923076923077,42.525009187499975L24.725274725274726,50.01562500000001L26.373626373626376,51.5268860625L32.967032967032964,54.28124999999999L34.61538461538462,49.01250450000002L36.26373626373626,46.48688512499998L37.91208791208791,50.51062781249998L42.857142857142854,46.1325073125L44.505494505494504,44.56874081250002L46.15384615384615,45.785613937500024L47.802197802197796,41.521865812500025L49.45054945054945,38.358741750000014L54.395604395604394,41.096260124999986L56.043956043956044,49.379997187500024L57.69230769230769,51.2906341875L59.340659340659336,49.329368625000015L60.989010989010985,50.38311768750001L65.93406593406593,48.9131240625L67.58241758241758,47.088752812500005L69.23076923076924,43.648132312499996L70.87912087912088,47.088752812500005L72.52747252747253,46.87687687499999L79.12087912087912,47.10374456249998L80.76923076923076,44.994369562500005L82.41758241758242,48.27561956249998L84.06593406593407,46.29187781249999L89.01098901098901,42.7874908125L90.65934065934066,41.00811768750001L92.3076923076923,41.24624625000002L93.95604395604396,43.55998987500003L95.60439560439559,50.50687406250002L100.54945054945054,50.373756375L102.1978021978022,51.234375L103.84615384615384,49.9312591875L105.4945054945055,55.43625637499999L107.14285714285714,57.49312593750001L112.08791208791209,61.2431259375L113.73626373626374,52.378120499999994L115.38461538461539,54.60562125000003L117.03296703296704,53.34750374999998L118.68131868131867,58.47374718750002L123.62637362637362,60.637504500000006L125.27472527472528,50.486251875L126.92307692307692,56.54624174999999L128.57142857142856,50.71687312500002L135.16483516483515,46.8974990625L136.8131868131868,46.314376874999994L138.46153846153848,48.53812406250001L140.1098901098901,51.41999812500001L141.75824175824175,53.39625543750001L146.7032967032967,51.99375918749999L148.35164835164835,43.09123987500002L150,43.58811956249998L151.64835164835165,43.25436393750003L153.2967032967033,43.04999549999998L158.24175824175825,42.64874268750002L159.8901098901099,43.96124268749999L161.53846153846152,46.03312687499999L163.18681318681317,44.89686581250002L164.83516483516485,50.09438325000001L169.78021978021977,50.94001012499999L171.42857142857142,49.79436487500002L173.07692307692307,44.1168823125L174.72527472527474,43.957488937500024L176.3736263736264,39.313133249999986L181.3186813186813,39.71811675000001L182.967032967033,42.0112610625L184.6153846153846,41.26311487500002L186.26373626373626,39.59626012499998L187.9120879120879,37.905006374999985L192.85714285714286,38.18062593749999L194.5054945054945,39.19876106249999L196.15384615384616,40.20188137499999L197.8021978021978,35.74875637500001L199.45054945054943,34.89374550000001L204.3956043956044,36.095626875L206.04395604395606,34.076248125L207.69230769230768,38.893135124999986L209.34065934065933,37.934989875000014L210.989010989011,39.69749456249999L215.93406593406593,36.82875824999998L217.58241758241758,36.92999268749999L219.23076923076923,35.876243624999994L220.8791208791209,33.08063512499998L222.52747252747253,32.74687949999999L227.47252747252747,32.5068740625L229.1208791208791,34.98749549999999L230.76923076923077,39.24188231250001L232.41758241758242,38.5593795L234.06593406593407,42.013114875L240.65934065934067,40.2468795L242.30769230769232,39.217506374999985L243.95604395604394,37.82624812500002L245.6043956043956,37.42874906249999L250.54945054945057,40.186866750000014L252.1978021978022,41.69062049999999L253.84615384615384,41.77500918749999L255.4945054945055,36.74061581250001L257.1428571428571,44.872489875L262.0879120879121,44.66999812500002L263.7362637362637,45.292511062499976L265.38461538461536,49.59562687500001L267.032967032967,48.77437593749998L268.6813186813187,44.994369562500005L273.6263736263736,44.9737471875L275.27472527472526,46.700614875L276.92307692307696,49.16061393750002L278.57142857142856,48.21938324999998L280.2197802197802,52.888114875L285.16483516483515,52.87500000000001L286.8131868131868,53.57061768750001L288.46153846153845,52.13063043749999L290.1098901098901,59.409370499999994L291.75824175824175,60.3037490625L296.7032967032967,59.999999999999986L298.35164835164835,59.07936862500001L300,63.46499625000003L301.64835164835165,63.2062455L308.2417582417582,65.19186393750003L309.8901098901099,61.18125918749999L311.53846153846155,66.6206360625L313.1868131868132,64.98937218750001L314.83516483516485,67.595626875L319.7802197802198,69.69374081250001L321.42857142857144,72.20436862499999L323.07692307692304,66.4950028125L324.7252747252747,63.690010124999986L326.37362637362634,63.622489875L331.31868131868134,63.75000000000001L332.967032967033,60.56250000000001L334.61538461538464,59.5893860625L336.2637362637363,65.1487426875L337.9120879120879,64.169998125L342.85714285714283,68.55562593750001L344.5054945054945,63.150009187500004L346.15384615384613,59.20124812499999L347.80219780219784,62.36624906249999L349.4505494505495,63.691863937500024L354.3956043956044,65.810623125L356.04395604395603,59.08499906250001L357.6923076923077,58.27688606249999L359.34065934065933,62.611885125L360.989010989011,56.94001012499999L365.934065934066,55.252510125L367.58241758241763,58.201881375000006L369.2307692307692,58.906883249999986L370.8791208791209,57.575614875L372.5274725274725,56.587509187499975L377.4725274725275,60.26250450000001L379.1208791208791,62.49563606249998L380.7692307692308,61.02374268749999L382.41758241758237,60.42750543750001L384.065934065934,57.71250918749998L389.010989010989,62.46750637499999L390.65934065934067,61.59187312500002L392.3076923076923,59.68874362499999L393.95604395604397,56.12248987500003L395.6043956043956,59.46938325000001L402.19780219780216,60.45375824999998L403.84615384615387,60.94125375L405.4945054945055,68.09438324999999L407.14285714285717,67.06686393750002L412.0879120879121,62.28936768750001L413.7362637362637,70.40437312499999L415.38461538461536,68.9924926875L417.032967032967,65.80311581250002L418.68131868131866,65.3062591875L423.62637362637366,76.3687591875L425.2747252747253,72.45000450000002L426.92307692307696,83.1768721875L428.57142857142856,73.77937312499999L430.2197802197802,64.67250825L435.16483516483515,73.670631375L436.8131868131868,77.2087554375L438.46153846153845,77.6493759375L440.1098901098901,73.27873987500001L441.7582417582418,72.51187125000003L446.7032967032967,92.54624175L448.35164835164835,81.30750281249999L450,82.30123893750002L451.64835164835165,91.0724945625L453.2967032967033,93.89437874999997L458.2417582417582,101.83312218750001L459.8901098901099,113.20687875L461.53846153846155,115.32374962499998L463.1868131868132,129.3900031875L464.83516483516485,131.3962554375L469.7802197802198,111.8718795L471.42857142857144,112.873123125L473.07692307692304,129.77999493750002L474.7252747252747,122.54437631250002L476.37362637362634,123.64687724999999L481.31868131868134,115.23749550000001L482.967032967033,120.92812724999999L484.61538461538464,131.8537445625L486.2637362637363,129.7293778125L487.9120879120879,135.60562124999998L492.85714285714283,140.82750318749999L494.5054945054945,123.65437312499999L496.15384615384613,125.6081199375L497.80219780219784,121.1081199375L499.4505494505495,118.359375L504.3956043956044,118.81875225000002L506.04395604395603,111.42187500000001L507.6923076923077,121.35562125L509.34065934065933,130.3349990625L510.989010989011,125.43937687500001L515.934065934066,127.64812087499999L517.5824175824176,131.44687274999998L519.2307692307693,140.19375225L520.8791208791209,129.133129125L522.5274725274726,136.25812912499998L527.4725274725274,140.484375L529.1208791208791,138.9150009375L530.7692307692307,148.76624681250001L532.4175824175824,158.91749962499998L534.065934065934,149.9943695625L539.0109890109891,140.28562537500002L540.6593406593406,139.2393721875L542.3076923076923,133.56000131250002L545.6043956043956,131.95500187499997L550.5494505494505,146.96062087500002L552.1978021978022,140.84812537500002L553.8461538461539,136.736251875L555.4945054945056,141.5212554375L557.1428571428571,135.73687368749998L562.0879120879121,129.43124774999998L563.7362637362637,133.3743781875L565.3846153846154,131.392501875L567.032967032967,136.2018699375L568.6813186813187,135.05062875000002L573.6263736263736,137.14312368749998L575.2747252747253,128.7787513125L576.9230769230769,130.42125318749999L578.5714285714286,134.00999456250003L580.2197802197802,133.52249906249997L585.1648351648352,136.5693740625L586.8131868131868,138.1575050625L588.4615384615385,137.2218705L591.7582417582418,136.35000225L596.7032967032967,136.98375318749999L598.3516483516484,133.0049971875L600,130.640625" stroke="#4c78a8" stroke-width="2"/></g></g><path class="foreground" aria-hidden="true" d="" display="none"/></g></g></g><defs><clipPath id="clip1"><rect x="0" y="0" width="600" height="300"/></clipPath><clipPath id="clip2"><rect x="0" y="0" width="600" height="300"/></clipPath></defs></svg>